<?xml version="1.0" encoding="UTF-8"?>
<svg id="Capa_1" data-name="Capa 1" xmlns="http://www.w3.org/2000/svg" viewBox="0 0 1000 344.81">
  <defs>
    <style>
      .cls-1 {
        fill: #f8b400;
      }

      .cls-2 {
        fill: #18ccdc;
      }

      .cls-3 {
        fill: #584b61;
      }

      .cls-4 {
        fill: #7812de;
      }
    </style>
  </defs>
  <g>
    <path class="cls-4" d="m341.92,157.7l-48.25-63.06c-2.36-3.08-7.06-3.08-9.41-.02l-25.98,33.65c-1.61,2.08-1.58,4.97.06,7.04l23.63,29.65c3.38,4.23,3.38,11.1,0,15.34l-23.9,30c-1.64,2.07-1.67,4.96-.06,7.04l25.9,33.53c2.36,3.06,7.06,3.06,9.41-.02l48.6-63.53c6.24-8.14,6.24-21.46,0-29.6Z"/>
    <path class="cls-2" d="m282.46,80.94s-.02-.02-.02-.02c-2.54-2.87-5.38-4.55-8.43-4.55h-49.49c-1.31,0-2.63.28-3.9.83-1.21.53-2.45,1.24-3.44,2.35-26.19,29.51-138.44,179.64-138.44,179.64-2.09,2.71-1.29,6.4,1.16,8.17t.01,0c.88.66,1.98,1.06,3.23,1.07h49.16c1.46,0,2.92-.34,4.29-1.02.01.01.02,0,.04-.01.04-.01.07-.02.11-.05,1.24-.54,2.43-1.35,3.5-2.43l.05-.05c.43-.42.83-.89,1.23-1.38l134.29-174.03c2.37-2.96,5.41-4.45,8.47-4.45h1.38s-2.34-3.11-3.2-4.07Z"/>
    <path class="cls-1" d="m283.13,259.79c-2.98,0-5.95-1.45-8.24-4.33l-18.27-23.56-33.59-43.49c-.22-.28-.53-.67-.74-.93-2.45-3.17-7.58-3.17-10.08.06l-23.51,30.31c-2.08,2.68-2.11,6.03.44,9.35l28.06,36.68c2.33,3.04,5.39,4.57,8.45,4.57,0,0,48.01,0,48.04,0,.57-.02,1.16-.15,1.72-.32,2.19-.6,4.27-2,5.96-4.22l3.24-4.11h-1.47Z"/>
  </g>
  <g>
    <path class="cls-3" d="m423.66,126.74c0-3.67,2.98-6.65,6.65-6.65h4.26c4.25,0,6.38,1.89,6.38,5.65v11.18c1.67-3.63,3.98-6.86,7.07-9.69,2.58-2.42,5.96-4.67,10.15-6.76,4.19-2.08,9.38-3.13,15.56-3.13,6.57,0,12.5,1.31,17.79,3.93,5.28,2.62,9.79,6.29,13.53,11,3.74,4.71,6.6,10.33,8.6,16.85,2,6.53,3,13.76,3,21.69s-1.1,15.4-3.29,21.99c-2.19,6.59-5.29,12.21-9.28,16.85-4,4.64-8.7,8.24-14.11,10.79-5.41,2.55-11.28,3.83-17.59,3.83-5.67,0-10.41-.94-14.21-2.83-3.8-1.88-6.93-3.97-9.38-6.25-2.72-2.45-4.61-5.32-6.26-8.64-.01-.03-.06,48.99-.06,48.99,0,4.44-2.09,6.66-6.21,6.66h-5.95c-3.67,0-6.65-2.98-6.65-6.65V126.74Zm18.12,45.09c0,4.57.64,9,1.91,13.29,1.27,4.3,3.12,8.13,5.54,11.48,2.42,3.36,5.4,6.08,8.96,8.16,3.56,2.08,7.69,3.12,12.39,3.12,4.03,0,7.82-.81,11.38-2.42,3.56-1.61,6.68-3.96,9.37-7.05,2.68-3.09,4.8-6.88,6.34-11.38,1.54-4.5,2.32-9.63,2.32-15.41s-.71-10.5-2.12-15c-1.41-4.5-3.39-8.32-5.94-11.48-2.55-3.15-5.61-5.61-9.16-7.35-3.56-1.74-7.42-2.62-11.58-2.62-3.9,0-7.59.7-11.08,2.11-3.49,1.41-6.62,3.59-9.37,6.55-2.75,2.96-4.93,6.75-6.54,11.38-1.61,4.63-2.42,10.17-2.42,16.62Z"/>
    <path class="cls-3" d="m543.7,86.41c0-3.67,2.98-6.65,6.65-6.65h6.87c3.67,0,6.65,2.98,6.65,6.65v105.34c0,2.82.27,5.1.8,6.85.53,1.75,1.27,3.09,2.2,4.03.93.94,1.93,1.58,3,1.91,1.07.34,2.13.57,3.2.7,1.47.27,2.7.84,3.7,1.71,1,.88,1.5,2.25,1.5,4.13v4.84c0,2.15-.51,3.83-1.53,5.04-1.02,1.21-2.83,1.81-5.42,1.81-2.73,0-5.73-.3-9-.91-3.27-.6-6.27-1.88-9-3.83-2.73-1.95-5.01-4.8-6.85-8.56-1.84-3.76-2.76-8.86-2.76-15.31v-107.75Z"/>
    <path class="cls-3" d="m597.58,246.53c1.34-.4,2.75-.4,4.23,0,1.07.4,2.25.87,3.52,1.41,1.28.54,2.79.81,4.53.81,4.16,0,7.72-1.55,10.68-4.63,2.95-3.09,5.24-6.65,6.85-10.67l5.04-11.68-39.48-93.05c-1.08-2.28-1.11-4.13-.1-5.54,1.01-1.41,2.72-2.11,5.14-2.11h7.86c3.76,0,6.24,1.75,7.45,5.24l27.8,73.72,26.79-73.52c1.21-3.62,3.69-5.44,7.45-5.44h7.25c2.42,0,4.13.7,5.14,2.11,1.01,1.41,1.04,3.26.1,5.54l-44.91,112.19c-3.09,8.06-7.55,14.13-13.39,18.23-5.84,4.09-12.39,6.14-19.64,6.14-2.96,0-5.61-.37-7.96-1.11-2.35-.74-4.4-1.44-6.14-2.11-1.88-.81-3.06-2.01-3.53-3.63-.47-1.61-.3-3.29.5-5.04l1.61-3.42c.81-1.88,1.88-3.02,3.22-3.42Z"/>
    <path class="cls-3" d="m717.52,137.38h-6.83c-4.41,0-6.61-2.27-6.61-6.82v-2.86c0-3.67,2.98-6.65,6.65-6.65h6.8v-22.16c0-3.67,2.98-6.65,6.65-6.65h6.87c3.67,0,6.65,2.98,6.65,6.65v23.12h16.4c3.67,0,6.65,2.98,6.65,6.65v2.3c0,4.28-2.03,6.42-6.1,6.42h-16.95v45.32c0,4.83.66,8.73,1.98,11.68,1.32,2.96,2.93,5.24,4.85,6.85,1.91,1.61,3.96,2.72,6.14,3.32,2.18.6,4.19.98,6.04,1.11,2.64.27,4.45.88,5.44,1.81.99.94,1.48,2.55,1.48,4.83v4.23c0,4.43-2.7,6.65-8.09,6.65s-9.98-.74-14.56-2.22c-4.58-1.48-8.59-3.76-12.03-6.85-3.44-3.09-6.2-6.98-8.29-11.68-2.09-4.7-3.13-10.27-3.13-16.72v-48.34Z"/>
    <path class="cls-3" d="m792.42,93.28v-6.87c0-3.67,2.98-6.65,6.65-6.65h6.87c3.67,0,6.65,2.98,6.65,6.65v6.87c0,3.67-2.98,6.65-6.65,6.65h-6.87c-3.67,0-6.65-2.98-6.65-6.65Zm6.65,27.77h6.87c3.67,0,6.65,2.98,6.65,6.65v88.5c0,3.67-2.98,6.65-6.65,6.65h-6.87c-3.67,0-6.65-2.98-6.65-6.65v-88.5c0-3.67,2.98-6.65,6.65-6.65Z"/>
    <path class="cls-3" d="m867.55,170.54l-27.76-41.44c-1.48-2.28-1.78-4.19-.91-5.73.87-1.54,2.65-2.31,5.33-2.31h7.65c3.49,0,6.03,1.54,7.64,4.63l19.92,32.39,19.92-32.39c1.74-3.08,4.36-4.63,7.85-4.63h7.44c2.68,0,4.46.77,5.33,2.31.87,1.54.57,3.45-.91,5.73l-27.56,41.44,29.57,44.26c1.48,2.28,1.78,4.19.91,5.73-.87,1.54-2.65,2.31-5.33,2.31h-7.24c-3.49,0-6.1-1.54-7.85-4.63l-22.13-35.01-21.93,35.01c-1.74,3.09-4.36,4.63-7.85,4.63h-7.24c-2.68,0-4.46-.77-5.33-2.31-.87-1.54-.57-3.45.91-5.73l29.57-44.26Z"/>
  </g>
</svg>